<svg width="240" height="90" viewBox="0 0 240 90" fill="none" xmlns="http://www.w3.org/2000/svg">
<g filter="url(#filter0_d_452_17)">
<path d="M22.8148 61.2854L51.104 65.3992L54.4128 63.9288L57.5054 61.5537L61.5491 58.224L63.9678 52.3875L65.2938 48.2595L36.7907 44.4041L22.8148 61.2854Z" fill="url(#paint0_linear_452_17)"/>
</g>
<g filter="url(#filter1_d_452_17)">
<path d="M63.1366 25.3814L34.8034 21.2312L31.4916 22.6991L28.3975 25.073L24.3519 28.4012L21.9367 34.2404L20.6136 38.3708L49.1607 42.2627L63.1366 25.3814Z" fill="url(#paint1_linear_452_17)"/>
</g>
<path d="M65.5546 47.4432L61.8548 14.4075L46.9953 32.0781L54.9118 60.2986C56.0632 62.7731 52.6176 64.6802 50.7509 65.3245C62.6385 65.8081 65.5733 53.6051 65.5546 47.4432Z" fill="#1B98E0"/>
<path d="M20.4043 39.112L24.1042 72.1477L38.9636 54.4772L31.0471 26.2567C29.8957 23.7822 33.3413 21.8751 35.208 21.2308C23.3204 20.7472 20.3857 32.9501 20.4043 39.112Z" fill="#1B98E0"/>
<path d="M82.0078 60L79.0528 49.05H80.5678L83.1328 59.04L82.4278 58.68H84.2128L83.4328 59.04L85.5178 49.5H86.8978L84.5128 60H82.0078ZM88.5928 60L85.9678 49.5H87.3928L89.7478 59.04L88.9978 58.68H90.7978L90.0328 59.04L92.3278 49.05H93.7978L91.1128 60H88.5928ZM100.297 60V57.6H100.057V54.825C100.057 54.275 99.9116 53.86 99.6216 53.58C99.3416 53.3 98.9266 53.16 98.3766 53.16C98.0666 53.16 97.7466 53.165 97.4166 53.175C97.0866 53.185 96.7716 53.195 96.4716 53.205C96.1716 53.215 95.9116 53.23 95.6916 53.25V51.99C95.9116 51.97 96.1416 51.955 96.3816 51.945C96.6316 51.925 96.8866 51.915 97.1466 51.915C97.4066 51.905 97.6566 51.9 97.8966 51.9C98.7166 51.9 99.3866 52 99.9066 52.2C100.427 52.39 100.812 52.705 101.062 53.145C101.312 53.585 101.437 54.18 101.437 54.93V60H100.297ZM97.6716 60.21C97.0716 60.21 96.5516 60.11 96.1116 59.91C95.6816 59.7 95.3466 59.4 95.1066 59.01C94.8766 58.62 94.7616 58.15 94.7616 57.6C94.7616 57.03 94.8866 56.555 95.1366 56.175C95.3966 55.795 95.7716 55.51 96.2616 55.32C96.7516 55.12 97.3416 55.02 98.0316 55.02H100.207V56.1H97.9716C97.3916 56.1 96.9466 56.24 96.6366 56.52C96.3266 56.8 96.1716 57.16 96.1716 57.6C96.1716 58.04 96.3266 58.395 96.6366 58.665C96.9466 58.935 97.3916 59.07 97.9716 59.07C98.3116 59.07 98.6366 59.01 98.9466 58.89C99.2566 58.76 99.5116 58.55 99.7116 58.26C99.9216 57.96 100.037 57.55 100.057 57.03L100.447 57.6C100.397 58.17 100.257 58.65 100.027 59.04C99.8066 59.42 99.4966 59.71 99.0966 59.91C98.7066 60.11 98.2316 60.21 97.6716 60.21ZM107.199 60.09C106.599 60.09 106.079 60.005 105.639 59.835C105.209 59.665 104.874 59.375 104.634 58.965C104.404 58.545 104.289 57.98 104.289 57.27V49.56H105.669V57.45C105.669 57.88 105.784 58.215 106.014 58.455C106.254 58.685 106.589 58.8 107.019 58.8H108.429V60.09H107.199ZM102.909 53.07V51.99H108.429V53.07H102.909ZM113.843 60.27C113.153 60.27 112.553 60.15 112.043 59.91C111.543 59.67 111.128 59.35 110.798 58.95C110.468 58.54 110.218 58.09 110.048 57.6C109.888 57.11 109.808 56.62 109.808 56.13V55.86C109.808 55.35 109.888 54.85 110.048 54.36C110.218 53.87 110.468 53.43 110.798 53.04C111.138 52.64 111.558 52.32 112.058 52.08C112.558 51.84 113.143 51.72 113.813 51.72C114.483 51.72 115.083 51.845 115.613 52.095C116.153 52.345 116.583 52.7 116.903 53.16C117.233 53.61 117.418 54.145 117.458 54.765H116.078C116.008 54.265 115.778 53.85 115.388 53.52C114.998 53.18 114.473 53.01 113.813 53.01C113.243 53.01 112.768 53.14 112.388 53.4C112.008 53.66 111.723 54.015 111.533 54.465C111.343 54.915 111.248 55.425 111.248 55.995C111.248 56.545 111.343 57.05 111.533 57.51C111.723 57.96 112.008 58.32 112.388 58.59C112.778 58.85 113.263 58.98 113.843 58.98C114.293 58.98 114.683 58.9 115.013 58.74C115.343 58.58 115.608 58.365 115.808 58.095C116.008 57.825 116.128 57.52 116.168 57.18H117.548C117.518 57.81 117.333 58.355 116.993 58.815C116.663 59.275 116.223 59.635 115.673 59.895C115.133 60.145 114.523 60.27 113.843 60.27ZM119.504 60V49.05H120.944V55.59H120.584C120.584 54.8 120.684 54.12 120.884 53.55C121.094 52.97 121.414 52.525 121.844 52.215C122.274 51.905 122.824 51.75 123.494 51.75H123.554C124.514 51.75 125.239 52.07 125.729 52.71C126.219 53.34 126.464 54.245 126.464 55.425V60H125.024V55.125C125.024 54.475 124.839 53.97 124.469 53.61C124.109 53.25 123.639 53.07 123.059 53.07C122.419 53.07 121.904 53.285 121.514 53.715C121.134 54.135 120.944 54.69 120.944 55.38V60H119.504ZM129.099 60V51.99H130.239V55.425H130.059C130.059 54.645 130.159 53.985 130.359 53.445C130.569 52.895 130.879 52.475 131.289 52.185C131.699 51.895 132.219 51.75 132.849 51.75H132.909C133.539 51.75 134.059 51.895 134.469 52.185C134.889 52.475 135.199 52.895 135.399 53.445C135.599 53.985 135.699 54.645 135.699 55.425H135.279C135.279 54.645 135.384 53.985 135.594 53.445C135.804 52.895 136.114 52.475 136.524 52.185C136.944 51.895 137.469 51.75 138.099 51.75H138.159C138.789 51.75 139.314 51.895 139.734 52.185C140.154 52.475 140.464 52.895 140.664 53.445C140.874 53.985 140.979 54.645 140.979 55.425V60H139.539V55.11C139.539 54.46 139.379 53.96 139.059 53.61C138.739 53.25 138.294 53.07 137.724 53.07C137.134 53.07 136.659 53.26 136.299 53.64C135.939 54.01 135.759 54.53 135.759 55.2V60H134.319V55.11C134.319 54.46 134.159 53.96 133.839 53.61C133.519 53.25 133.074 53.07 132.504 53.07C131.914 53.07 131.439 53.26 131.079 53.64C130.719 54.01 130.539 54.53 130.539 55.2V60H129.099ZM148.461 60V57.6H148.221V54.825C148.221 54.275 148.076 53.86 147.786 53.58C147.506 53.3 147.091 53.16 146.541 53.16C146.231 53.16 145.911 53.165 145.581 53.175C145.251 53.185 144.936 53.195 144.636 53.205C144.336 53.215 144.076 53.23 143.856 53.25V51.99C144.076 51.97 144.306 51.955 144.546 51.945C144.796 51.925 145.051 51.915 145.311 51.915C145.571 51.905 145.821 51.9 146.061 51.9C146.881 51.9 147.551 52 148.071 52.2C148.591 52.39 148.976 52.705 149.226 53.145C149.476 53.585 149.601 54.18 149.601 54.93V60H148.461ZM145.836 60.21C145.236 60.21 144.716 60.11 144.276 59.91C143.846 59.7 143.511 59.4 143.271 59.01C143.041 58.62 142.926 58.15 142.926 57.6C142.926 57.03 143.051 56.555 143.301 56.175C143.561 55.795 143.936 55.51 144.426 55.32C144.916 55.12 145.506 55.02 146.196 55.02H148.371V56.1H146.136C145.556 56.1 145.111 56.24 144.801 56.52C144.491 56.8 144.336 57.16 144.336 57.6C144.336 58.04 144.491 58.395 144.801 58.665C145.111 58.935 145.556 59.07 146.136 59.07C146.476 59.07 146.801 59.01 147.111 58.89C147.421 58.76 147.676 58.55 147.876 58.26C148.086 57.96 148.201 57.55 148.221 57.03L148.611 57.6C148.561 58.17 148.421 58.65 148.191 59.04C147.971 59.42 147.661 59.71 147.261 59.91C146.871 60.11 146.396 60.21 145.836 60.21ZM152.244 60V51.99H153.384V55.425H153.204C153.204 54.635 153.309 53.97 153.519 53.43C153.739 52.88 154.069 52.465 154.509 52.185C154.949 51.895 155.504 51.75 156.174 51.75H156.234C157.244 51.75 157.989 52.065 158.469 52.695C158.959 53.325 159.204 54.235 159.204 55.425V60H157.764V55.125C157.764 54.505 157.589 54.01 157.239 53.64C156.889 53.26 156.409 53.07 155.799 53.07C155.169 53.07 154.659 53.265 154.269 53.655C153.879 54.045 153.684 54.565 153.684 55.215V60H152.244ZM169.016 60.27C168.106 60.27 167.331 60.12 166.691 59.82C166.051 59.52 165.561 59.105 165.221 58.575C164.881 58.045 164.711 57.445 164.711 56.775H166.181C166.181 57.105 166.266 57.435 166.436 57.765C166.616 58.095 166.911 58.37 167.321 58.59C167.741 58.81 168.306 58.92 169.016 58.92C169.676 58.92 170.216 58.825 170.636 58.635C171.056 58.435 171.366 58.18 171.566 57.87C171.766 57.55 171.866 57.205 171.866 56.835C171.866 56.385 171.671 56.015 171.281 55.725C170.891 55.425 170.321 55.24 169.571 55.17L168.356 55.065C167.386 54.985 166.611 54.685 166.031 54.165C165.451 53.645 165.161 52.96 165.161 52.11C165.161 51.44 165.321 50.855 165.641 50.355C165.971 49.855 166.426 49.465 167.006 49.185C167.586 48.895 168.261 48.75 169.031 48.75C169.791 48.75 170.461 48.89 171.041 49.17C171.621 49.45 172.071 49.845 172.391 50.355C172.721 50.855 172.886 51.455 172.886 52.155H171.416C171.416 51.805 171.331 51.475 171.161 51.165C171.001 50.855 170.746 50.6 170.396 50.4C170.046 50.2 169.591 50.1 169.031 50.1C168.491 50.1 168.041 50.195 167.681 50.385C167.331 50.575 167.066 50.825 166.886 51.135C166.716 51.435 166.631 51.76 166.631 52.11C166.631 52.51 166.786 52.865 167.096 53.175C167.406 53.485 167.866 53.665 168.476 53.715L169.691 53.82C170.441 53.88 171.086 54.04 171.626 54.3C172.176 54.55 172.596 54.89 172.886 55.32C173.186 55.74 173.336 56.245 173.336 56.835C173.336 57.505 173.156 58.1 172.796 58.62C172.436 59.14 171.931 59.545 171.281 59.835C170.631 60.125 169.876 60.27 169.016 60.27ZM175.053 63.12V61.83H176.208C176.548 61.83 176.833 61.785 177.063 61.695C177.303 61.615 177.498 61.475 177.648 61.275C177.808 61.075 177.938 60.81 178.038 60.48L180.558 51.99H181.968L179.298 60.855C179.138 61.385 178.913 61.815 178.623 62.145C178.333 62.485 177.978 62.73 177.558 62.88C177.148 63.04 176.668 63.12 176.118 63.12H175.053ZM177.498 59.82V58.62H179.238V59.82H177.498ZM177.348 59.82L174.483 51.99H175.953L178.698 59.82H177.348ZM186.363 60.24C185.313 60.24 184.498 60.015 183.918 59.565C183.348 59.115 183.053 58.5 183.033 57.72H184.383C184.403 58.03 184.558 58.325 184.848 58.605C185.148 58.875 185.653 59.01 186.363 59.01C187.003 59.01 187.493 58.885 187.833 58.635C188.173 58.375 188.343 58.06 188.343 57.69C188.343 57.36 188.218 57.105 187.968 56.925C187.718 56.735 187.313 56.61 186.753 56.55L185.883 56.46C185.123 56.38 184.503 56.155 184.023 55.785C183.543 55.405 183.303 54.875 183.303 54.195C183.303 53.685 183.433 53.25 183.693 52.89C183.953 52.52 184.313 52.24 184.773 52.05C185.233 51.85 185.763 51.75 186.363 51.75C187.263 51.75 187.993 51.95 188.553 52.35C189.113 52.75 189.403 53.345 189.423 54.135H188.073C188.063 53.815 187.913 53.545 187.623 53.325C187.343 53.095 186.923 52.98 186.363 52.98C185.803 52.98 185.378 53.095 185.088 53.325C184.798 53.555 184.653 53.845 184.653 54.195C184.653 54.495 184.753 54.735 184.953 54.915C185.163 55.095 185.503 55.21 185.973 55.26L186.843 55.35C187.703 55.44 188.393 55.68 188.913 56.07C189.433 56.45 189.693 56.99 189.693 57.69C189.693 58.19 189.548 58.635 189.258 59.025C188.978 59.405 188.588 59.705 188.088 59.925C187.588 60.135 187.013 60.24 186.363 60.24ZM194.9 60.09C194.3 60.09 193.78 60.005 193.34 59.835C192.91 59.665 192.575 59.375 192.335 58.965C192.105 58.545 191.99 57.98 191.99 57.27V49.56H193.37V57.45C193.37 57.88 193.485 58.215 193.715 58.455C193.955 58.685 194.29 58.8 194.72 58.8H196.13V60.09H194.9ZM190.61 53.07V51.99H196.13V53.07H190.61ZM201.513 60.27C200.813 60.27 200.208 60.15 199.698 59.91C199.188 59.67 198.773 59.355 198.453 58.965C198.133 58.565 197.893 58.12 197.733 57.63C197.583 57.14 197.508 56.64 197.508 56.13V55.86C197.508 55.34 197.583 54.835 197.733 54.345C197.893 53.855 198.133 53.415 198.453 53.025C198.773 52.625 199.178 52.31 199.668 52.08C200.168 51.84 200.753 51.72 201.423 51.72C202.293 51.72 203.008 51.91 203.568 52.29C204.138 52.66 204.558 53.14 204.828 53.73C205.108 54.32 205.248 54.95 205.248 55.62V56.265H198.138V55.185H204.198L203.868 55.77C203.868 55.2 203.778 54.71 203.598 54.3C203.418 53.88 203.148 53.555 202.788 53.325C202.428 53.095 201.973 52.98 201.423 52.98C200.853 52.98 200.378 53.11 199.998 53.37C199.628 53.63 199.348 53.985 199.158 54.435C198.978 54.885 198.888 55.405 198.888 55.995C198.888 56.565 198.978 57.08 199.158 57.54C199.348 57.99 199.638 58.35 200.028 58.62C200.418 58.88 200.913 59.01 201.513 59.01C202.143 59.01 202.653 58.87 203.043 58.59C203.443 58.31 203.683 57.985 203.763 57.615H205.113C205.003 58.165 204.783 58.64 204.453 59.04C204.123 59.44 203.708 59.745 203.208 59.955C202.708 60.165 202.143 60.27 201.513 60.27ZM207.292 60V51.99H208.432V55.425H208.252C208.252 54.645 208.352 53.985 208.552 53.445C208.762 52.895 209.072 52.475 209.482 52.185C209.892 51.895 210.412 51.75 211.042 51.75H211.102C211.732 51.75 212.252 51.895 212.662 52.185C213.082 52.475 213.392 52.895 213.592 53.445C213.792 53.985 213.892 54.645 213.892 55.425H213.472C213.472 54.645 213.577 53.985 213.787 53.445C213.997 52.895 214.307 52.475 214.717 52.185C215.137 51.895 215.662 51.75 216.292 51.75H216.352C216.982 51.75 217.507 51.895 217.927 52.185C218.347 52.475 218.657 52.895 218.857 53.445C219.067 53.985 219.172 54.645 219.172 55.425V60H217.732V55.11C217.732 54.46 217.572 53.96 217.252 53.61C216.932 53.25 216.487 53.07 215.917 53.07C215.327 53.07 214.852 53.26 214.492 53.64C214.132 54.01 213.952 54.53 213.952 55.2V60H212.512V55.11C212.512 54.46 212.352 53.96 212.032 53.61C211.712 53.25 211.267 53.07 210.697 53.07C210.107 53.07 209.632 53.26 209.272 53.64C208.912 54.01 208.732 54.53 208.732 55.2V60H207.292ZM221.524 60V58.17H223.264V60H221.524Z" fill="white"/>
<path d="M196.603 46H239.603" stroke="#1B98E0" stroke-width="2"/>
<defs>
<filter id="filter0_d_452_17" x="2.81482" y="28.4041" width="82.479" height="60.9951" filterUnits="userSpaceOnUse" color-interpolation-filters="sRGB">
<feFlood flood-opacity="0" result="BackgroundImageFix"/>
<feColorMatrix in="SourceAlpha" type="matrix" values="0 0 0 0 0 0 0 0 0 0 0 0 0 0 0 0 0 0 127 0" result="hardAlpha"/>
<feOffset dy="4"/>
<feGaussianBlur stdDeviation="10"/>
<feComposite in2="hardAlpha" operator="out"/>
<feColorMatrix type="matrix" values="0 0 0 0 0 0 0 0 0 0 0 0 0 0 0 0 0 0 0.25 0"/>
<feBlend mode="normal" in2="BackgroundImageFix" result="effect1_dropShadow_452_17"/>
<feBlend mode="normal" in="SourceGraphic" in2="effect1_dropShadow_452_17" result="shape"/>
</filter>
<filter id="filter1_d_452_17" x="0.613586" y="5.23116" width="82.523" height="61.0315" filterUnits="userSpaceOnUse" color-interpolation-filters="sRGB">
<feFlood flood-opacity="0" result="BackgroundImageFix"/>
<feColorMatrix in="SourceAlpha" type="matrix" values="0 0 0 0 0 0 0 0 0 0 0 0 0 0 0 0 0 0 127 0" result="hardAlpha"/>
<feOffset dy="4"/>
<feGaussianBlur stdDeviation="10"/>
<feComposite in2="hardAlpha" operator="out"/>
<feColorMatrix type="matrix" values="0 0 0 0 0 0 0 0 0 0 0 0 0 0 0 0 0 0 0.25 0"/>
<feBlend mode="normal" in2="BackgroundImageFix" result="effect1_dropShadow_452_17"/>
<feBlend mode="normal" in="SourceGraphic" in2="effect1_dropShadow_452_17" result="shape"/>
</filter>
<linearGradient id="paint0_linear_452_17" x1="25.2675" y1="58.3229" x2="52.1667" y2="67.4066" gradientUnits="userSpaceOnUse">
<stop stop-color="#1B98E0"/>
<stop offset="0.203125" stop-color="#173E54"/>
<stop offset="1" stop-color="#1B98E0"/>
</linearGradient>
<linearGradient id="paint1_linear_452_17" x1="60.6839" y1="28.3439" x2="33.7227" y2="19.2627" gradientUnits="userSpaceOnUse">
<stop stop-color="#1B98E0"/>
<stop offset="0.203125" stop-color="#173E54"/>
<stop offset="1" stop-color="#1B98E0"/>
</linearGradient>
</defs>
</svg>
